<svg xmlns="http://www.w3.org/2000/svg" width="102.016" height="333.8" viewBox="0 0 102.016 333.8">
  <g id="Group_16250" data-name="Group 16250" transform="translate(27.003 161.26)">
    <path id="Path_11611" data-name="Path 11611" d="M3140.552,1184.153a.1.1,0,0,0-.175-.013,75.27,75.27,0,0,0-3.293,8.514c-.734,2.056-1.444,4.123-2.109,6.2a42.248,42.248,0,0,0-1.585,5.633,75.183,75.183,0,0,0-.56,8.3c-.146,2.471-.322,4.94-.545,7.4a49.142,49.142,0,0,1-.692,5.589c-.7,3.365-6.541,26.392-6.659,31.679q.085,1.416.188,2.566h.014c.032.441.451,1.5,1.109,4.107a17.874,17.874,0,0,1,2.359,7.561c-.555,3.708,1.042,7.11,1.077,7.768-.1.626-.071,1.006-.485,1.179-2.95.833-3.505-6.175-3.448-7.838-.6-2.05-1.237-1.044-1.475-.729-1.772,3.991.033,8.567.657,10.335s1.006,3.054.729,3.332c-.869,1.006-1.843-.113-2.1-.649-4.658-3.078-6.26-6.6-7.477-11.983-.447-1.97-.222-3.079-.2-6.444.014-1.433.382-3.219.395-4.229.089-.63.156-1.81.235-2.467.4-3.45-.037-7,.056-8.356-1.681-22.794-.544-31.261.1-37.9,0-6.814,3.289-25.846,3.76-26.843a33.8,33.8,0,0,0,1.363-4.474c.616-2.556,1.057-5.151,1.419-7.749.418-3.008.462-6.026.744-9.043a36.774,36.774,0,0,1,1.6-8.027,18.992,18.992,0,0,1,4.38-7.561,12.65,12.65,0,0,1,2.265-1.8c1.829-1.119,3.981-1.467,5.955-2.237,1.724-.677,3.394-1.477,5.071-2.252a66.11,66.11,0,0,0,6.659-3.021,14.293,14.293,0,0,0,5.174-5.062c2.115-3.478,1.659-7.956.766-11.739-.184-.775-.385-1.555-.634-2.312-.075-.236-.324-1.34-.583-1.429-.311-.108-.635-.108-.945-.211a2.248,2.248,0,0,1-1.268-1.377,10.274,10.274,0,0,1-.667-1.955c-.23-.987-.526-1.955-.677-2.961a5.373,5.373,0,0,1,.207-3.289.848.848,0,0,1,.464-.433c.067-.018.349-.033.353.089-.009-.249-.019-.5-.024-.748-.018-1.772.015-3.548-.014-5.324-.042-2.533.08-5.258,1.566-7.421a13.53,13.53,0,0,1,3.007-2.683.154.154,0,0,0,.047-.038c.32-.264,2.581-2.072,2.026-2.5a3.109,3.109,0,0,1,.84.786,1.667,1.667,0,0,1,.193.464c.023.085.15.531.089.593,2.665-2.6,2.51-3.807,2.51-3.807a8.986,8.986,0,0,1,.911,2.317,3.783,3.783,0,1,1,6.955,0,9.219,9.219,0,0,1,.908-2.317s-.151,1.2,2.514,3.807c-.06-.062.066-.507.089-.593a1.712,1.712,0,0,1,.193-.464,3.1,3.1,0,0,1,.842-.786c-.555.424,1.706,2.232,2.024,2.5a.192.192,0,0,0,.047.038,13.537,13.537,0,0,1,3.008,2.683c1.484,2.162,1.606,4.887,1.564,7.421-.027,1.776.005,3.552-.014,5.324,0,.249-.013.5-.022.748,0-.122.286-.108.352-.089a.848.848,0,0,1,.465.433,5.383,5.383,0,0,1,.207,3.289c-.151,1.006-.447,1.974-.677,2.961a10.412,10.412,0,0,1-.667,1.955,2.245,2.245,0,0,1-1.269,1.377c-.31.1-.635.1-.944.211-.258.089-.507,1.193-.582,1.429-.249.757-.451,1.537-.635,2.312-.893,3.783-1.349,8.261.766,11.739a14.283,14.283,0,0,0,5.175,5.062,66,66,0,0,0,6.659,3.021c1.677.775,3.346,1.575,5.071,2.252,1.973.77,4.125,1.118,5.953,2.237a12.708,12.708,0,0,1,2.266,1.8,18.986,18.986,0,0,1,4.38,7.561,36.775,36.775,0,0,1,1.6,8.027c.282,3.017.324,6.035.742,9.043.362,2.6.8,5.193,1.42,7.749a33.731,33.731,0,0,0,1.362,4.474c.47,1,3.76,20.029,3.76,26.843.644,6.637,1.781,15.1.1,37.9.095,1.357-.338,4.906.057,8.356.08.657.146,1.837.234,2.467.015,1.01.382,2.8.4,4.229.023,3.365.249,4.474-.2,6.444-1.217,5.386-2.819,8.905-7.478,11.983-.253.536-1.226,1.655-2.1.649-.278-.278.1-1.56.728-3.332s2.43-6.344.658-10.335c-.24-.315-.875-1.32-1.475.729.056,1.663-.5,8.671-3.45,7.838-.414-.173-.38-.553-.484-1.179.033-.658,1.631-4.06,1.077-7.768a17.847,17.847,0,0,1,2.359-7.561c.658-2.6,1.077-3.667,1.109-4.107h.013q.105-1.151.188-2.566c-.118-5.287-5.955-28.314-6.659-31.679a84.714,84.714,0,0,1-1.176-11.991q-.138-2.17-.233-4.339a31.693,31.693,0,0,0-1.053-7.564c-.574-2.013-1.225-4-1.9-5.986-1.21-3.562-2.475-7.119-3.913-10.6-.166-.4-.325-.8-.521-1.182a.087.087,0,0,0-.159.009,12.609,12.609,0,0,0-.664,3.171,35.179,35.179,0,0,1-2.133,9.048,59.267,59.267,0,0,0-2.623,6.908c-.944,3.826-.84,7.779-.761,11.688.217,10.748,3.38,20.913,5.24,31.426,1.185,6.7,2.125,13.44,2.763,20.212.968,10.231-.629,20.077-2.721,30.049a74.475,74.475,0,0,0-1.282,18.534c.249,5.635.268,11.293.4,16.946q.079,3.265.16,6.528a176.256,176.256,0,0,1-.888,21.6q-.671,6.872-1.748,13.7c-1.673,10.621-2.867,21.35,3.336,30.828a29.807,29.807,0,0,0,1.917,2.6c2.35,2.467,2.373,2.552,3.022,3.313.864,1.015,1.959,1.72,2.574,2.961,1,2.017-.149,4.06-1.959,5.155-2.917,1.758-7.693,2.167-10.166-.54a5.692,5.692,0,0,1-1.377-2.283c-.469-2.059-1.113-5.875-5.935-8.347-1.335-.686-2.721-.982-3.8-2.119a6.386,6.386,0,0,1-1.442-4.9c.117-2.012.77-3.938,1.057-5.926a56.706,56.706,0,0,0,.311-6.119q.126-3.667.117-7.341a82.844,82.844,0,0,0-.329-8.9,34.6,34.6,0,0,0-1.57-6.7,69.738,69.738,0,0,1-2.425-10.062,66.814,66.814,0,0,1-.709-15.1,69.67,69.67,0,0,1,1.1-8.547,67.968,67.968,0,0,0-.381-27.61c-.944-4.249-2.363-8.29-3.017-12.609-1.33-8.821-1.292-17.858-1.066-26.75,0-.822-.174-2.881-1.157-2.716-.982-.165-1.155,1.894-1.155,2.716.226,8.892.262,17.929-1.067,26.75-.653,4.318-2.072,8.36-3.018,12.609a67.976,67.976,0,0,0-.38,27.61,70.051,70.051,0,0,1,1.1,8.547,66.9,66.9,0,0,1-.709,15.1,69.678,69.678,0,0,1-2.426,10.062,34.854,34.854,0,0,0-1.569,6.7,82.843,82.843,0,0,0-.328,8.9c-.01,2.448.033,4.9.117,7.341a56.706,56.706,0,0,0,.311,6.119c.286,1.988.939,3.914,1.057,5.926a6.4,6.4,0,0,1-1.442,4.9c-1.081,1.137-2.468,1.433-3.8,2.119-4.822,2.472-5.466,6.288-5.937,8.347a5.659,5.659,0,0,1-1.377,2.283c-2.472,2.708-7.247,2.3-10.164.54-1.81-1.095-2.957-3.138-1.96-5.155.616-1.24,1.711-1.946,2.576-2.961.649-.761.672-.846,3.021-3.312a29.718,29.718,0,0,0,1.918-2.6c6.2-9.478,5.009-20.208,3.336-30.828q-1.078-6.823-1.748-13.7a176.159,176.159,0,0,1-.888-21.6q.084-3.263.158-6.528c.133-5.653.151-11.312.4-16.946a74.591,74.591,0,0,0-1.283-18.534c-2.091-9.973-3.69-19.818-2.721-30.049.639-6.772,1.579-13.515,2.763-20.212,1.861-10.513,5.024-20.678,5.24-31.426.08-3.909.184-7.861-.761-11.688a59.435,59.435,0,0,0-2.622-6.908,35.449,35.449,0,0,1-2.193-9.077A12.663,12.663,0,0,0,3140.552,1184.153Z" transform="translate(-3142.698 -1247.662)" fill="#a6a8ab"/>
    <line id="Line_78" data-name="Line 78" x2="48.031"/>
    <g id="Group_16249" data-name="Group 16249">
      <line id="Line_79" data-name="Line 79" fill="none" stroke="#fff" stroke-linecap="round" stroke-miterlimit="10" stroke-width="1.074"/>
      <line id="Line_80" data-name="Line 80" x2="42.885" transform="translate(3.431)" fill="none" stroke="#fff" stroke-linecap="round" stroke-miterlimit="10" stroke-width="1.074" stroke-dasharray="0 2.616"/>
      <line id="Line_81" data-name="Line 81" transform="translate(48.031)" fill="none" stroke="#fff" stroke-linecap="round" stroke-miterlimit="10" stroke-width="1.074"/>
    </g>
    <g id="Group_16248" data-name="Group 16248" transform="translate(4.988 -29.763)">
      <line id="Line_74" data-name="Line 74" x2="38.055"/>
      <g id="Group_16247" data-name="Group 16247">
        <line id="Line_75" data-name="Line 75" fill="none" stroke="#fff" stroke-linecap="round" stroke-miterlimit="10" stroke-width="1.074"/>
        <line id="Line_76" data-name="Line 76" x2="32.866" transform="translate(3.46)" fill="none" stroke="#fff" stroke-linecap="round" stroke-miterlimit="10" stroke-width="1.074" stroke-dasharray="0 2.638"/>
        <line id="Line_77" data-name="Line 77" transform="translate(38.055)" fill="none" stroke="#fff" stroke-linecap="round" stroke-miterlimit="10" stroke-width="1.074"/>
      </g>
    </g>
    <g id="Group_16246" data-name="Group 16246" transform="translate(-0.059 -61.093)">
      <line id="Line_70" data-name="Line 70" x2="48.148"/>
      <g id="Group_16245" data-name="Group 16245">
        <line id="Line_71" data-name="Line 71" fill="none" stroke="#fff" stroke-linecap="round" stroke-miterlimit="10" stroke-width="1.074"/>
        <line id="Line_72" data-name="Line 72" x2="42.593" transform="translate(3.703)" fill="none" stroke="#fff" stroke-linecap="round" stroke-miterlimit="10" stroke-width="1.074" stroke-dasharray="0 2.824"/>
        <line id="Line_73" data-name="Line 73" transform="translate(48.148)" fill="none" stroke="#fff" stroke-linecap="round" stroke-miterlimit="10" stroke-width="1.074"/>
      </g>
    </g>
    <g id="Group_16244" data-name="Group 16244" transform="translate(-22.305 -56.075)">
      <line id="Line_66" data-name="Line 66" x2="15.88"/>
      <g id="Group_16243" data-name="Group 16243">
        <line id="Line_67" data-name="Line 67" fill="none" stroke="#fff" stroke-linecap="round" stroke-miterlimit="10" stroke-width="1.074"/>
        <line id="Line_68" data-name="Line 68" x2="9.925" transform="translate(3.97)" fill="none" stroke="#fff" stroke-linecap="round" stroke-miterlimit="10" stroke-width="1.074" stroke-dasharray="0 3.028"/>
        <line id="Line_69" data-name="Line 69" transform="translate(15.88)" fill="none" stroke="#fff" stroke-linecap="round" stroke-miterlimit="10" stroke-width="1.074"/>
      </g>
    </g>
    <g id="Group_16242" data-name="Group 16242" transform="translate(-3.37 24.437)">
      <line id="Line_62" data-name="Line 62" x2="24.946"/>
      <g id="Group_16241" data-name="Group 16241">
        <line id="Line_63" data-name="Line 63" fill="none" stroke="#fff" stroke-linecap="round" stroke-miterlimit="10" stroke-width="1.074"/>
        <line id="Line_64" data-name="Line 64" x2="19.601" transform="translate(3.564)" fill="none" stroke="#fff" stroke-linecap="round" stroke-miterlimit="10" stroke-width="1.074" stroke-dasharray="0 2.718"/>
        <line id="Line_65" data-name="Line 65" transform="translate(24.946)" fill="none" stroke="#fff" stroke-linecap="round" stroke-miterlimit="10" stroke-width="1.074"/>
      </g>
    </g>
    <g id="Group_16240" data-name="Group 16240" transform="translate(26.12 24.437)">
      <line id="Line_58" data-name="Line 58" x2="24.946"/>
      <g id="Group_16239" data-name="Group 16239">
        <line id="Line_59" data-name="Line 59" fill="none" stroke="#fff" stroke-linecap="round" stroke-miterlimit="10" stroke-width="1.074"/>
        <line id="Line_60" data-name="Line 60" x2="19.601" transform="translate(3.564)" fill="none" stroke="#fff" stroke-linecap="round" stroke-miterlimit="10" stroke-width="1.074" stroke-dasharray="0 2.718"/>
        <line id="Line_61" data-name="Line 61" transform="translate(24.946)" fill="none" stroke="#fff" stroke-linecap="round" stroke-miterlimit="10" stroke-width="1.074"/>
      </g>
    </g>
    <g id="Group_16238" data-name="Group 16238" transform="translate(0.645 124.413)">
      <line id="Line_54" data-name="Line 54" x2="17.752"/>
      <g id="Group_16237" data-name="Group 16237">
        <line id="Line_55" data-name="Line 55" fill="none" stroke="#fff" stroke-linecap="round" stroke-miterlimit="10" stroke-width="1.074"/>
        <line id="Line_56" data-name="Line 56" x2="13.314" transform="translate(2.959)" fill="none" stroke="#fff" stroke-linecap="round" stroke-miterlimit="10" stroke-width="1.074" stroke-dasharray="0 2.256"/>
        <line id="Line_57" data-name="Line 57" transform="translate(17.752)" fill="none" stroke="#fff" stroke-linecap="round" stroke-miterlimit="10" stroke-width="1.074"/>
      </g>
    </g>
    <g id="Group_16236" data-name="Group 16236" transform="translate(29.434 124.413)">
      <line id="Line_50" data-name="Line 50" x2="17.82"/>
      <g id="Group_16235" data-name="Group 16235">
        <line id="Line_51" data-name="Line 51" fill="none" stroke="#fff" stroke-linecap="round" stroke-miterlimit="10" stroke-width="1.074"/>
        <line id="Line_52" data-name="Line 52" x2="13.365" transform="translate(2.97)" fill="none" stroke="#fff" stroke-linecap="round" stroke-miterlimit="10" stroke-width="1.074" stroke-dasharray="0 2.265"/>
        <line id="Line_53" data-name="Line 53" transform="translate(17.82)" fill="none" stroke="#fff" stroke-linecap="round" stroke-miterlimit="10" stroke-width="1.074"/>
      </g>
    </g>
    <g id="Group_16234" data-name="Group 16234" transform="translate(54.338 -56.089)">
      <line id="Line_46" data-name="Line 46" x2="16.074"/>
      <g id="Group_16233" data-name="Group 16233">
        <line id="Line_47" data-name="Line 47" fill="none" stroke="#fff" stroke-linecap="round" stroke-miterlimit="10" stroke-width="1.074"/>
        <line id="Line_48" data-name="Line 48" x2="10.046" transform="translate(4.019)" fill="none" stroke="#fff" stroke-linecap="round" stroke-miterlimit="10" stroke-width="1.074" stroke-dasharray="0 3.064"/>
        <line id="Line_49" data-name="Line 49" transform="translate(16.074)" fill="none" stroke="#fff" stroke-linecap="round" stroke-miterlimit="10" stroke-width="1.074"/>
      </g>
    </g>
    <g id="Group_16232" data-name="Group 16232" transform="translate(14.921 -117.84)">
      <line id="Line_42" data-name="Line 42" x2="18.189"/>
      <g id="Group_16231" data-name="Group 16231">
        <line id="Line_43" data-name="Line 43" fill="none" stroke="#fff" stroke-linecap="round" stroke-miterlimit="10" stroke-width="1.074"/>
        <line id="Line_44" data-name="Line 44" x2="13.642" transform="translate(3.032)" fill="none" stroke="#fff" stroke-linecap="round" stroke-miterlimit="10" stroke-width="1.074" stroke-dasharray="0 2.312"/>
        <line id="Line_45" data-name="Line 45" transform="translate(18.189)" fill="none" stroke="#fff" stroke-linecap="round" stroke-miterlimit="10" stroke-width="1.074"/>
      </g>
    </g>
  </g>
</svg>
