<svg xmlns="http://www.w3.org/2000/svg" xmlns:xlink="http://www.w3.org/1999/xlink" width="197.549" height="327.302" viewBox="0 0 197.549 327.302">
  <defs>
    <linearGradient id="linear-gradient" x1="0.5" x2="0.5" y2="1" gradientUnits="objectBoundingBox">
      <stop offset="0" stop-color="#e2c629"/>
      <stop offset="1" stop-color="#453e18"/>
    </linearGradient>
    <linearGradient id="linear-gradient-2" x1="3.708" y1="-8.692" x2="3.708" y2="-7.692" gradientUnits="objectBoundingBox">
      <stop offset="0" stop-color="#89890f"/>
      <stop offset="1" stop-color="#988100"/>
    </linearGradient>
    <linearGradient id="linear-gradient-3" x1="3.708" y1="-9.041" x2="3.708" y2="-8.041" gradientUnits="objectBoundingBox">
      <stop offset="0" stop-color="#4f00bc"/>
      <stop offset="1" stop-color="#806e0b"/>
    </linearGradient>
  </defs>
  <g id="Group_16230" data-name="Group 16230" transform="translate(1116.576 -259.315)">
    <g id="Group_16204" data-name="Group 16204" transform="translate(-1116.576 259.315)">
      <g id="banner_BG" data-name="banner BG" transform="translate(0)">
        <path id="Path_11581" data-name="Path 11581" d="M-662.544,365.984a13.971,13.971,0,0,0-14.174,13.759V679.528a13.971,13.971,0,0,0,14.174,13.759h168.982a13.971,13.971,0,0,0,14.175-13.759V379.743a13.972,13.972,0,0,0-14.175-13.759Z" transform="translate(676.827 -365.984)" fill="url(#linear-gradient)"/>
        <path id="Path_11582" data-name="Path 11582" d="M-662.78,953.78h169.2c7.828,0,14.173-5.855,14.173-13.077V891.048c-12-3.8-25.262-7.191-48.9-7.191-53.867,0-53.867,17.593-107.735,17.593-18.566,0-30.733-2.09-40.912-4.829V940.7C-676.953,947.925-670.607,953.78-662.78,953.78Z" transform="translate(676.953 -626.478)" opacity="0.7" fill="url(#linear-gradient-2)"/>
        <path id="Path_11583" data-name="Path 11583" d="M-662.78,956.566h169.2c7.828,0,14.173-5.855,14.173-13.077V898.847C-498.41,905-516.029,911.6-553.863,911.6c-64.023,0-70.158-18.905-123.09-22.528v54.418C-676.953,950.711-670.607,956.566-662.78,956.566Z" transform="translate(676.953 -629.264)" fill="url(#linear-gradient-3)"/>
        <rect id="Rectangle_955" data-name="Rectangle 955" width="197.331" height="63.048" transform="translate(0.109 82.261)" opacity="0.1"/>
      </g>
      <g id="buy_now_button" data-name="buy now button" transform="translate(52.058 296.069)">
        <path id="Path_11584" data-name="Path 11584" d="M-581.571,976.384h0a9.44,9.44,0,0,0,9.441,9.44h74.552a9.44,9.44,0,0,0,9.44-9.44h0a9.44,9.44,0,0,0-9.44-9.44H-572.13A9.44,9.44,0,0,0-581.571,976.384Z" transform="translate(581.571 -966.944)" fill="#fff" opacity="0.2"/>
      </g>
      <g id="title" transform="translate(63.37 22.173)">
        <g id="Group_16203" data-name="Group 16203">
          <text id="GOLD" transform="translate(0 29)" fill="#fff" font-size="27" font-family="SegoeUI, Segoe UI"><tspan x="0" y="0">GOLD</tspan></text>
        </g>
      </g>
    </g>
  </g>
</svg>
