<svg xmlns="http://www.w3.org/2000/svg" width="37.563" height="37.563" viewBox="0 0 37.563 37.563">
  <g id="Icon_ionic-md-speedometer" data-name="Icon ionic-md-speedometer" transform="translate(-3.375 -3.375)">
    <path id="Path_11862" data-name="Path 11862" d="M9,29.25H32.115v4.334H9Z" transform="translate(1.599 7.353)" fill="#351e59"/>
    <path id="Path_11863" data-name="Path 11863" d="M19.589,22.478a2.889,2.889,0,1,0-.795-5.67l-6.023-4.4-.361.316,4.415,6.023a2.819,2.819,0,0,0-.126.84A2.886,2.886,0,0,0,19.589,22.478Z" transform="translate(2.568 2.568)" fill="#351e59"/>
    <path id="Path_11864" data-name="Path 11864" d="M22.156,3.375a18.777,18.777,0,0,0-14.8,30.339h5.309l.361-.361,2-2L12.955,29.29l-2,1.986A14.392,14.392,0,0,1,7.781,23.6H10.6V20.712H7.781a14.392,14.392,0,0,1,3.178-7.675l2,1.986,2.068-2.068-1.986-2a14.392,14.392,0,0,1,7.675-3.178V10.6H23.6V7.781a14.392,14.392,0,0,1,7.675,3.178l-1.986,2,2.068,2.068,2-1.986a14.392,14.392,0,0,1,3.178,7.675H33.714V23.6h2.817a14.392,14.392,0,0,1-3.178,7.675l-2-1.986L29.29,31.357l2,2,.361.361h5.309a18.777,18.777,0,0,0-14.8-30.339Z" fill="#351e59"/>
  </g>
</svg>
