<svg xmlns="http://www.w3.org/2000/svg" width="27.419" height="44.003" viewBox="0 0 27.419 44.003">
  <g id="Group_16149" data-name="Group 16149" transform="translate(-120.411 -523.226)">
    <path id="Path_11560" data-name="Path 11560" d="M120.411,587.651a13.724,13.724,0,0,1,10.293-13.26c.3-.074.378-.043.365.274-.024.552-.021,1.107,0,1.659.009.242-.089.323-.3.392a11.078,11.078,0,0,0-7.879,8.587,11.457,11.457,0,1,0,14.619-8.627c-.264-.082-.338-.19-.327-.451.021-.527.023-1.055,0-1.582-.013-.307.05-.39.371-.3a13.747,13.747,0,0,1,6.923,4.32,13.469,13.469,0,0,1,3.3,10.275,13.708,13.708,0,0,1-26.717,2.849A14.01,14.01,0,0,1,120.411,587.651Z" transform="translate(0 -34.123)" fill="#481a91"/>
    <path id="Path_11561" data-name="Path 11561" d="M156.971,543.841c0,2.226,0,4.452-.006,6.678a.483.483,0,0,0,.289.506,2.835,2.835,0,0,1,1.37,3.291,2.915,2.915,0,0,1-2.836,2.079,2.969,2.969,0,0,1-2.781-2.36,2.776,2.776,0,0,1,1.4-3,.5.5,0,0,0,.3-.535q-.007-12.951,0-25.9a2.227,2.227,0,0,1,.038-.535,1.113,1.113,0,0,1,1.187-.835,1.14,1.14,0,0,1,1,1.061,2.77,2.77,0,0,1,0,.655c-.068.407.141.516.489.591a9.138,9.138,0,0,0,4.194-.263,22.983,22.983,0,0,1,3.356-.679,10.32,10.32,0,0,1,3.4.272,1.075,1.075,0,0,1,.925,1.185q0,2.779,0,5.559c0,1.132.007,2.265,0,3.4a1.056,1.056,0,0,1-1.336,1.1,9.872,9.872,0,0,0-5.172.225,14.462,14.462,0,0,1-3.981.65,8.211,8.211,0,0,1-1.378-.147c-.457-.088-.458-.084-.458.368Q156.97,540.521,156.971,543.841Z" transform="translate(-21.74)" fill="#481a91"/>
    <path id="Path_11562" data-name="Path 11562" d="M148.1,591.39a8.276,8.276,0,1,1-11.292,8.621,8.134,8.134,0,0,1,5.167-8.609c0,.78,0,1.548,0,2.317,0,.189-.142.223-.253.3a5.954,5.954,0,0,0-2.785,5.315,6.061,6.061,0,0,0,12,.894,5.972,5.972,0,0,0-2.554-6.17.559.559,0,0,1-.294-.554C148.106,592.809,148.1,592.115,148.1,591.39Z" transform="translate(-10.909 -45.534)" fill="#481a91"/>
    <path id="Path_11563" data-name="Path 11563" d="M175.2,537.389v3.086c0,.15.043.309-.221.277a13.458,13.458,0,0,0-4.941.594,10.443,10.443,0,0,1-3.956.43c-1.035-.138-1.038-.115-1.038-1.162q0-2.738,0-5.477c0-.175-.05-.37.261-.309a11.385,11.385,0,0,0,5.18-.357,12.836,12.836,0,0,1,4.177-.577c.537.037.538.029.538.563Z" transform="translate(-29.813 -7.114)" fill="#481a91"/>
  </g>
</svg>
