<svg xmlns="http://www.w3.org/2000/svg" width="35.83" height="37.224" viewBox="0 0 35.83 37.224">
  <g id="Group_16284" data-name="Group 16284" transform="translate(813.23 -355.84)">
    <path id="Path_11835" data-name="Path 11835" d="M-792.063,452.5a12.14,12.14,0,0,1-4.32-1.093,27.487,27.487,0,0,1-7.19-4.622,34.435,34.435,0,0,1-7.051-8.2,18.292,18.292,0,0,1-2.429-5.826,6.273,6.273,0,0,1-.034-2.8,2.03,2.03,0,0,1,.44-.911,19.457,19.457,0,0,1,1.954-1.949,3.626,3.626,0,0,1,1.348-.739,2.43,2.43,0,0,1,2.212.509,9,9,0,0,1,2.82,3.782,2.468,2.468,0,0,1-.407,2.59,8.857,8.857,0,0,1-1.108,1.17,1.384,1.384,0,0,0-.4,1.6,5.845,5.845,0,0,0,.922,1.744,33.037,33.037,0,0,0,6.822,6.818,5.04,5.04,0,0,0,2.046.99,1.2,1.2,0,0,0,1.16-.348,16.265,16.265,0,0,1,1.185-1.14,2.537,2.537,0,0,1,2.8-.464,8.982,8.982,0,0,1,3.67,2.77,2.462,2.462,0,0,1,.089,3.156,11.9,11.9,0,0,1-2.338,2.429A3.26,3.26,0,0,1-792.063,452.5Z" transform="translate(0 -61.617)" fill="#351e59"/>
    <path id="Path_11836" data-name="Path 11836" d="M-685.546,651.938c-.022.062-.074.061-.123.054a.059.059,0,0,1-.049-.087c.014-.025.065-.036.1-.039A.062.062,0,0,1-685.546,651.938Z" transform="translate(-111.527 -258.932)" fill="#351e59"/>
    <path id="Path_11837" data-name="Path 11837" d="M-695.142,361.857a10.107,10.107,0,0,0-4.919-4.632,13.944,13.944,0,0,0-8.946-1.092,11.7,11.7,0,0,0-7.013,3.952,7.937,7.937,0,0,0-1.268,8.931,9.391,9.391,0,0,0,3.19,3.728c.169.121.22.219.138.423-.166.412-.359.81-.55,1.21a2,2,0,0,0,.21,2.19,1.972,1.972,0,0,0,2.076.815,9.163,9.163,0,0,0,3.669-1.5,2.373,2.373,0,0,1,2.174-.676,17.884,17.884,0,0,0,1.987-.108,13.688,13.688,0,0,0,1.645-.3,11.638,11.638,0,0,0,6.667-4.127A7.884,7.884,0,0,0-695.142,361.857Zm-2.828,7.667a9.638,9.638,0,0,1-5.416,3.155,11.94,11.94,0,0,1-4.712.155.419.419,0,0,0-.422.171,7.476,7.476,0,0,1-3.688,2.1c-.053.015-.11.065-.188.011.114-.26.23-.52.344-.782a10.614,10.614,0,0,0,.64-2.354c.03-.164-.073-.192-.167-.247a12.039,12.039,0,0,1-1.772-1.191,6.717,6.717,0,0,1-2.444-3.951,5.92,5.92,0,0,1,1.348-4.978,9.436,9.436,0,0,1,5.47-3.23,11.74,11.74,0,0,1,8.875,1.32,7.229,7.229,0,0,1,3.346,3.967A5.86,5.86,0,0,1-697.97,369.524Z" transform="translate(-83.188 0)" fill="#351e59"/>
    <path id="Path_11838" data-name="Path 11838" d="M-636.484,416.863a1.963,1.963,0,0,1,1.977,1.961,1.973,1.973,0,0,1-1.98,1.962,1.968,1.968,0,0,1-1.96-1.949A1.958,1.958,0,0,1-636.484,416.863Z" transform="translate(-152.883 -53.376)" fill="#351e59"/>
    <path id="Path_11839" data-name="Path 11839" d="M-594.677,418.809a1.945,1.945,0,0,1,1.98-1.947,1.961,1.961,0,0,1,1.947,1.987,1.968,1.968,0,0,1-2,1.936A1.956,1.956,0,0,1-594.677,418.809Z" transform="translate(-191.167 -53.375)" fill="#351e59"/>
    <path id="Path_11840" data-name="Path 11840" d="M-680.2,420.785a1.973,1.973,0,0,1-1.956-1.984,1.963,1.963,0,0,1,2-1.939,1.959,1.959,0,0,1,1.94,1.964A1.968,1.968,0,0,1-680.2,420.785Z" transform="translate(-114.649 -53.376)" fill="#351e59"/>
  </g>
</svg>
