<svg xmlns="http://www.w3.org/2000/svg" width="53.785" height="34.584" viewBox="0 0 53.785 34.584">
  <g id="Group_16140" data-name="Group 16140" transform="translate(0 0)">
    <path id="Path_9642" data-name="Path 9642" d="M-5002.9,1758.981c-.74-.035-1.42-.015-2.083-.109a4.127,4.127,0,0,1-3.513-4.385,4.187,4.187,0,0,1,4.037-3.83c.5-.015,1,0,1.56,0,0-.5,0-.948,0-1.4.008-1.134-.051-2.272.042-3.4a4.072,4.072,0,0,1,5.5-3.538c.073.025.147.046.258.081.031-.45.031-.884.094-1.309a4.15,4.15,0,0,1,4.387-3.574,4.176,4.176,0,0,1,3.842,4.168c.015,2.787,0,5.574,0,8.361v.58h14.383v-.525c0-2.8-.01-5.605,0-8.408a4.162,4.162,0,0,1,4.163-4.184,4.177,4.177,0,0,1,4.123,4.084c.006.25,0,.5,0,.649a11.49,11.49,0,0,1,2.244-.141,4.094,4.094,0,0,1,3.592,4.183c.014,1.432,0,2.864,0,4.367.493,0,.958,0,1.425,0a4.124,4.124,0,0,1,4.086,3.6,4.113,4.113,0,0,1-3.161,4.561,17.886,17.886,0,0,1-2.412.193v.559c0,1.212-.034,2.426.007,3.637a4.142,4.142,0,0,1-5.613,4.058c-.056-.023-.117-.036-.2-.061a13.62,13.62,0,0,1-.129,1.543,4.136,4.136,0,0,1-4.392,3.337,4.13,4.13,0,0,1-3.774-4.074c-.03-2.818-.009-5.637-.009-8.455v-.579h-14.34v.534c0,2.8.012,5.605,0,8.408a4.167,4.167,0,0,1-4.078,4.176,4.177,4.177,0,0,1-4.207-4.047c-.008-.266,0-.532,0-.85a4.075,4.075,0,0,1-2.759.219,4.17,4.17,0,0,1-3.079-4.1C-5002.912,1761.878-5002.9,1760.447-5002.9,1758.981Zm30.958-4.232v4.77c0,2.786,0,5.573,0,8.359a1.687,1.687,0,0,0,1.838,1.76,1.71,1.71,0,0,0,1.561-1.851q0-12.987,0-25.974a2.607,2.607,0,0,0,0-.283,1.666,1.666,0,0,0-1.1-1.467,1.7,1.7,0,0,0-2.3,1.7Q-4971.948,1748.256-4971.944,1754.75Zm-22.613.051q0,6.375,0,12.749a5.829,5.829,0,0,0,.019.613,1.669,1.669,0,0,0,1.582,1.477,1.7,1.7,0,0,0,1.8-1.857q.007-12.985,0-25.971a2.694,2.694,0,0,0-.043-.469,1.665,1.665,0,0,0-1.521-1.383,1.665,1.665,0,0,0-1.745,1.157,3,3,0,0,0-.086.839Q-4994.56,1748.379-4994.557,1754.8Zm28.458-.006q0,4.25,0,8.5a1.683,1.683,0,0,0,1.688,1.813,1.7,1.7,0,0,0,1.709-1.8q.007-8.5,0-17a2.2,2.2,0,0,0-.148-.779,1.667,1.667,0,0,0-1.878-1.012,1.685,1.685,0,0,0-1.365,1.688C-4966.1,1749.065-4966.1,1751.929-4966.1,1754.794Zm-30.967,0c0-2.848,0-5.7,0-8.545a1.671,1.671,0,0,0-1.79-1.755,1.711,1.711,0,0,0-1.607,1.858q0,6.4,0,12.793,0,2.077,0,4.154a1.694,1.694,0,0,0,.979,1.645,1.684,1.684,0,0,0,2.417-1.606C-4997.056,1760.49-4997.065,1757.642-4997.065,1754.793Zm8.318-1.673v3.358h14.284v-3.358Zm28.506,3.371c.581,0,1.114.035,1.641-.008a1.669,1.669,0,0,0,1.5-1.609,1.65,1.65,0,0,0-1.4-1.74,14.3,14.3,0,0,0-1.742-.013Zm-42.686-3.373a14.821,14.821,0,0,0-1.708.012,1.684,1.684,0,0,0-1.426,1.638,1.632,1.632,0,0,0,1.357,1.684,12.938,12.938,0,0,0,1.777.016Z" transform="translate(5008.509 -1737.509)" fill="#481a91"/>
  </g>
</svg>
