<svg id="Layer_2" data-name="Layer 2" xmlns="http://www.w3.org/2000/svg" width="36.829" height="36.829" viewBox="0 0 36.829 36.829">
  <g id="invisible_box" data-name="invisible box" transform="translate(0 0)">
    <rect id="Rectangle_33" data-name="Rectangle 33" width="36.829" height="36.829" fill="none"/>
    <rect id="Rectangle_34" data-name="Rectangle 34" width="36.829" height="36.829" fill="none"/>
  </g>
  <g id="icons_Q2" data-name="icons Q2" transform="translate(3.148 2.519)">
    <path id="Path_20" data-name="Path 20" d="M35.477,5.674V33.846A.236.236,0,0,1,35.4,34a1.5,1.5,0,0,1-1.416,1.416H25.719V23.3h3.856c.236,0,.236,0,.315-.236l.236-1.967c.079-.787.157-1.574.315-2.361s0-.236-.157-.236H25.719V15.432c0-.236.079-.551.079-.787a1.416,1.416,0,0,1,1.259-1.259l1.023-.157H30.44c.157,0,.157,0,.157-.157V9.058c0-.079,0-.157-.157-.157h-3.62a5.666,5.666,0,0,0-2.6.551,4.722,4.722,0,0,0-2.754,2.44,5.745,5.745,0,0,0-.63,2.833c-.079,1.18,0,2.44,0,3.7H16.827c-.157,0-.157.079-.157.157v4.486c0,.157,0,.157.157.157H20.84V35.341a.236.236,0,0,0-.079.157H5.5a1.5,1.5,0,0,1-1.416-1.416C4,34.082,4,34,4,33.925V5.674c0-.079,0-.157.079-.157A1.5,1.5,0,0,1,5.5,4.1H33.982A1.5,1.5,0,0,1,35.4,5.516Z" transform="translate(-4 -4.1)" fill="#1870c7"/>
  </g>
</svg>
