<?xml version="1.0" standalone="no"?>
<!DOCTYPE svg PUBLIC "-//W3C//DTD SVG 20010904//EN"
 "http://www.w3.org/TR/2001/REC-SVG-20010904/DTD/svg10.dtd">
<svg version="1.0" xmlns="http://www.w3.org/2000/svg"
 width="194.000000pt" height="259.000000pt" viewBox="0 0 194.000000 259.000000"
 preserveAspectRatio="xMidYMid meet">

<g transform="translate(0.000000,259.000000) scale(0.100000,-0.100000)"
fill="#000000" stroke="none">
<path d="M1188 2550 c-54 -16 -99 -53 -128 -104 l-30 -51 0 -267 0 -267 -46
24 c-83 44 -187 32 -269 -31 -31 -23 -39 -25 -61 -15 -68 31 -205 -4 -253 -64
-20 -26 -27 -28 -80 -26 -79 3 -133 -15 -185 -60 -80 -71 -113 -194 -103 -395
7 -142 28 -217 108 -375 28 -56 59 -136 70 -178 14 -55 28 -84 49 -106 l30
-30 473 0 c465 0 473 0 512 22 60 32 87 66 153 196 72 139 171 292 235 363 25
28 73 65 105 82 132 70 173 182 112 301 -25 50 -90 107 -137 120 -74 21 -126
14 -207 -28 l-76 -39 0 370 c0 263 -4 383 -12 412 -8 25 -31 59 -58 86 -61 61
-130 82 -202 60z"/>
<path d="M248 514 c-50 -27 -58 -58 -58 -230 l0 -156 34 -34 34 -34 514 0
c563 0 541 -2 573 60 22 42 21 309 0 350 -31 61 -26 60 -572 60 -421 -1 -502
-3 -525 -16z m213 -109 c63 -33 86 -112 49 -172 -50 -82 -160 -82 -210 0 -36
59 -18 130 43 167 39 24 78 25 118 5z"/>
</g>
</svg>
