<svg xmlns="http://www.w3.org/2000/svg" width="45.102" height="50.402" viewBox="0 0 45.102 50.402">
  <path id="Path_11576" data-name="Path 11576" d="M108.793,181.409c-.135.22-.236.374-.329.534q-2.528,4.377-5.055,8.755a2.181,2.181,0,1,1-3.813-2.111c1.348-2.362,2.715-4.713,4.075-7.069.8-1.378,1.588-2.757,2.393-4.129a.592.592,0,0,0,.022-.7c-.558-.922-1.108-1.85-1.619-2.8-.177-.329-.318-.285-.578-.133-1.684.984-3.378,1.949-5.058,2.939-.267.157-.386.157-.535-.136a115.548,115.548,0,0,1-8.288-20,32.16,32.16,0,0,1-1.455-8.115,8.91,8.91,0,0,1,1.041-5.055,4.494,4.494,0,0,1,1.55-1.518l17.67,30.6c.187-.094.229-.273.312-.416,1.517-2.62,3.025-5.245,4.552-7.86a.536.536,0,0,0-.068-.74,7.507,7.507,0,0,1-.755-8.68c2.484-4.334,4.993-8.652,7.478-12.985.176-.307.3-.382.6-.164a6.071,6.071,0,0,0,.933.537c.34.163.413.306.2.678-1.891,3.234-3.755,6.483-5.627,9.728-.043.074-.089.146-.131.22a1.14,1.14,0,1,0,1.943,1.14q2.057-3.553,4.107-7.11c.564-.978,1.139-1.95,1.687-2.937.149-.268.267-.334.54-.155a10.939,10.939,0,0,0,1.244.717c.32.155.294.3.136.57q-2.874,4.948-5.725,9.908a2.88,2.88,0,0,0-.24.453,1.145,1.145,0,0,0,.523,1.371,1.107,1.107,0,0,0,1.425-.313,4.266,4.266,0,0,0,.3-.479c1.883-3.259,3.771-6.514,5.636-9.782.194-.339.332-.39.639-.17.468.335,1.281.468,1.385.936.09.412-.461.97-.741,1.457q-2.535,4.4-5.077,8.8a1.348,1.348,0,0,0-.274.963,1.1,1.1,0,0,0,.909.931,1.044,1.044,0,0,0,1.148-.5c.284-.447.54-.913.8-1.372q2.54-4.4,5.072-8.8c.174-.3.3-.437.638-.188a5.635,5.635,0,0,0,1.019.592c.317.145.278.294.132.545-2.522,4.351-5.022,8.714-7.559,13.056a7.487,7.487,0,0,1-7.881,3.628.526.526,0,0,0-.647.3q-2.918,5.1-5.876,10.176a.665.665,0,0,0,.03.782q3.219,5.548,6.417,11.109a2.244,2.244,0,1,1-3.876,2.249q-2.238-3.863-4.463-7.734C109.4,182.453,109.116,181.965,108.793,181.409Z" transform="translate(-88.545 -141.507)" fill="#351e59"/>
</svg>
