<svg xmlns="http://www.w3.org/2000/svg" width="32" height="32" viewBox="0 0 32 32">
  <path id="Icon_awesome-history" data-name="Icon awesome-history" d="M32.562,16.532A16,16,0,0,1,6.521,29.02a1.547,1.547,0,0,1-.119-2.3L7.129,26a1.551,1.551,0,0,1,2.057-.128A11.872,11.872,0,1,0,8.429,7.913L11.7,11.187a1.032,1.032,0,0,1-.73,1.762H1.595A1.032,1.032,0,0,1,.563,11.917V2.538a1.032,1.032,0,0,1,1.762-.73L5.51,4.994A16,16,0,0,1,32.562,16.532ZM20.891,21.615l.634-.815a1.548,1.548,0,0,0-.272-2.173l-2.626-2.042V9.853A1.548,1.548,0,0,0,17.079,8.3H16.046A1.548,1.548,0,0,0,14.5,9.853V18.6l4.22,3.282a1.548,1.548,0,0,0,2.173-.272Z" transform="translate(-0.563 -0.563)" fill="#351e59"/>
</svg>
