<svg xmlns="http://www.w3.org/2000/svg" width="42.246" height="39.899" viewBox="0 0 42.246 39.899">
  <g id="Layer_2" data-name="Layer 2" transform="translate(0)">
    <g id="invisible_box" data-name="invisible box" transform="translate(0 0)">
      <rect id="Rectangle_35" data-name="Rectangle 35" width="42.246" height="39.899" transform="translate(0 0)" fill="none"/>
      <rect id="Rectangle_36" data-name="Rectangle 36" width="42.246" height="39.899" transform="translate(0 0)" fill="none"/>
    </g>
    <g id="icons_Q2" data-name="icons Q2" transform="translate(4.277 2.644)">
      <path id="Path_21" data-name="Path 21" d="M21.05,7.069h6.905a9.207,9.207,0,0,1,3.154.6,5.712,5.712,0,0,1,3.24,3.24,9.208,9.208,0,0,1,.6,3.154c.085,1.79.085,2.387.085,6.906s0,5.115-.085,6.906a9.208,9.208,0,0,1-.6,3.154,5.712,5.712,0,0,1-3.24,3.24,9.207,9.207,0,0,1-3.154.6H14.145a9.207,9.207,0,0,1-3.154-.6,5.712,5.712,0,0,1-3.24-3.24,9.208,9.208,0,0,1-.6-3.154c-.085-1.79-.085-2.387-.085-6.906s0-5.115.085-6.906a9.208,9.208,0,0,1,.6-3.154,5.712,5.712,0,0,1,3.24-3.24,9.207,9.207,0,0,1,3.154-.6H21.05M21.05,4H14.06a15.26,15.26,0,0,0-4.177.767A8.525,8.525,0,0,0,6.9,6.9,7.247,7.247,0,0,0,4.938,9.883a12.362,12.362,0,0,0-.853,4.177C4,15.85,4,16.447,4,21.051s0,5.2.085,6.991a12.362,12.362,0,0,0,.853,4.177A7.247,7.247,0,0,0,6.9,35.2a7.246,7.246,0,0,0,2.984,1.961,12.361,12.361,0,0,0,4.177.853H28.041a12.361,12.361,0,0,0,4.177-.853A7.246,7.246,0,0,0,35.2,35.2a8.525,8.525,0,0,0,2.046-2.984,15.261,15.261,0,0,0,.767-4.177c.085-1.79.085-2.387.085-6.991s0-5.2-.085-6.991a15.261,15.261,0,0,0-.767-4.177A8.525,8.525,0,0,0,35.2,6.9a8.525,8.525,0,0,0-2.984-2.046,15.26,15.26,0,0,0-4.177-.767H21.05" transform="translate(-4 -4)" fill="#e366a9"/>
      <path id="Path_22" data-name="Path 22" d="M22.481,13.7a8.781,8.781,0,1,0,8.781,8.781A8.781,8.781,0,0,0,22.481,13.7m0,14.493a5.712,5.712,0,1,1,5.712-5.712,5.712,5.712,0,0,1-5.712,5.712" transform="translate(-5.431 -5.43)" fill="#e366a9"/>
      <path id="Path_23" data-name="Path 23" d="M36.392,12.946A2.046,2.046,0,1,1,34.346,10.9a2.046,2.046,0,0,1,2.046,2.046" transform="translate(-8.174 -5.017)" fill="#e366a9"/>
    </g>
  </g>
</svg>
