<svg xmlns="http://www.w3.org/2000/svg" width="278.53" height="115.24" viewBox="0 0 278.53 115.24">
  <g id="Group_84" data-name="Group 84" transform="translate(-67.735 -140.26)">
    <g id="Group_119" data-name="Group 119" transform="translate(126.712 141.417)">
      <path id="Path_1388" data-name="Path 1388" d="M519,622.132h-56.3V638.72h54.9c6.242,0,10.194.847,10.194,7.2S523.948,653.4,517.6,653.4h-54.9v36.233H478.3V669.057H519c6.78,0,13.346-1.937,18.189-6.565a22.114,22.114,0,0,0,7-16.682C544.181,631.28,532.988,622.132,519,622.132Z" transform="translate(-462.693 -622.132)" fill="#cbcbcb"/>
      <path id="Path_1389" data-name="Path 1389" d="M1057.189,643.505h29.319v50.588h15.606V643.505h27.3V627.378h-72.221Z" transform="translate(-968.356 -626.594)" fill="#cbcbcb"/>
    </g>
    <g id="Group_121" data-name="Group 121" transform="translate(297.631 140.26)">
      <rect id="Rectangle_590" data-name="Rectangle 590" width="15.688" height="69.813" fill="#8dc63f"/>
      <g id="Group_120" data-name="Group 120" transform="translate(20.395 8.629)">
        <rect id="Rectangle_591" data-name="Rectangle 591" width="7.056" height="15.688" transform="translate(21.183 19.61)" fill="#8dc63f"/>
        <path id="Path_1390" data-name="Path 1390" d="M1759.49,691.746v-19.61h-16.472v52.948h16.472V691.746Z" transform="translate(-1743.018 -672.135)" fill="#8dc63f"/>
      </g>
    </g>
    <g id="Group_123" data-name="Group 123" transform="translate(67.735 140.26)">
      <rect id="Rectangle_592" data-name="Rectangle 592" width="15.688" height="69.813" transform="translate(32.945)" fill="#8dc63f"/>
      <g id="Group_122" data-name="Group 122" transform="translate(0 8.629)">
        <rect id="Rectangle_593" data-name="Rectangle 593" width="7.056" height="15.688" transform="translate(0 19.61)" fill="#8dc63f"/>
        <path id="Path_1391" data-name="Path 1391" d="M146.743,691.746v-19.61h16.473v52.948H146.743V691.746Z" transform="translate(-134.977 -672.135)" fill="#8dc63f"/>
      </g>
    </g>
    <g id="Group_125" data-name="Group 125" transform="translate(79.54 227.296)">
      <path id="Path_1392" data-name="Path 1392" d="M147,1227.255v-27.208h8.752q4.484,0,6.856,2.264a8.088,8.088,0,0,1,2.372,6.141,7.961,7.961,0,0,1-2.372,6.076q-2.372,2.242-6.856,2.242h-5.329v10.485Zm3.423-13.431h5.329a5.856,5.856,0,0,0,4.3-1.451,5.276,5.276,0,0,0,1.462-3.921,5.484,5.484,0,0,0-1.462-4.008,5.754,5.754,0,0,0-4.3-1.495h-5.329Z" transform="translate(-147 -1199.57)" fill="#cbcbcb"/>
      <path id="Path_1393" data-name="Path 1393" d="M369.428,1200.047v24.262h12.131v2.946h-15.51v-27.208Z" transform="translate(-333.317 -1199.57)" fill="#cbcbcb"/>
      <path id="Path_1394" data-name="Path 1394" d="M537.839,1227.255l9.358-27.208h4.116l9.142,27.208H556.9l-2.3-6.975H543.774l-2.383,6.975Zm6.8-9.618h9.1l-4.549-13.474Z" transform="translate(-479.438 -1199.57)" fill="#cbcbcb"/>
      <path id="Path_1395" data-name="Path 1395" d="M744.714,1202.95v-2.9H765.9v2.9h-9.683l.758-.78v25.085H753.6V1202.17l.758.78Z" transform="translate(-655.4 -1199.57)" fill="#cbcbcb"/>
      <path id="Path_1396" data-name="Path 1396" d="M975.359,1227.255v-27.208h16.55v2.9H978.738V1212H991v2.9H978.738v12.348Z" transform="translate(-851.581 -1199.57)" fill="#cbcbcb"/>
      <path id="Path_1397" data-name="Path 1397" d="M1182.559,1225.062a11.739,11.739,0,0,1-6.044-1.56,10.731,10.731,0,0,1-4.2-4.69,20.871,20.871,0,0,1,0-15.727,10.665,10.665,0,0,1,4.2-4.679,12.527,12.527,0,0,1,12.088.011,10.727,10.727,0,0,1,4.2,4.7,20.9,20.9,0,0,1,0,15.738,10.6,10.6,0,0,1-4.2,4.668A11.868,11.868,0,0,1,1182.559,1225.062Zm0-3.119a7.318,7.318,0,0,0,6.055-2.795q2.22-2.794,2.22-8.21,0-5.307-2.22-8.177a7.789,7.789,0,0,0-12.088.011q-2.242,2.881-2.242,8.21,0,5.394,2.242,8.178A7.343,7.343,0,0,0,1182.559,1221.942Z" transform="translate(-1017.797 -1196.857)" fill="#cbcbcb"/>
      <path id="Path_1398" data-name="Path 1398" d="M1430.415,1227.255v-27.208h9.488q4.657,0,7.051,2.22a8.263,8.263,0,0,1,0,11.633q-2.394,2.221-7.051,2.22h-6.109v11.135Zm3.379-13.517h5.849a6.518,6.518,0,0,0,4.647-1.505,5.695,5.695,0,0,0,.065-7.831,6.223,6.223,0,0,0-4.451-1.451h-6.109Zm11.871,13.517-7.8-12.348h3.682l8.492,12.348Z" transform="translate(-1238.64 -1199.57)" fill="#cbcbcb"/>
      <path id="Path_1399" data-name="Path 1399" d="M1665.988,1200.047h4.852l9.358,18.8h-.347l9.358-18.8h4.722v27.208h-3.423v-23.7h.607l-9.965,20.276H1678.9l-9.921-20.146h.39v23.569h-3.379Z" transform="translate(-1439.012 -1199.57)" fill="#cbcbcb"/>
    </g>
  </g>
</svg>
