<?xml version="1.0" standalone="no"?>
<!DOCTYPE svg PUBLIC "-//W3C//DTD SVG 20010904//EN"
 "http://www.w3.org/TR/2001/REC-SVG-20010904/DTD/svg10.dtd">
<svg version="1.0" xmlns="http://www.w3.org/2000/svg"
 width="160.000000pt" height="110.000000pt" viewBox="0 0 160.000000 110.000000"
 preserveAspectRatio="xMidYMid meet">

<g transform="translate(0.000000,110.000000) scale(0.100000,-0.100000)"
fill="#000000" stroke="none">
<path d="M250 980 l0 -50 -80 0 -80 0 0 -430 0 -430 705 0 705 0 0 480 0 480
-625 0 -625 0 0 -50z m0 -455 c0 -318 0 -325 -20 -325 -20 0 -20 7 -20 325 0
318 0 325 20 325 20 0 20 -7 20 -325z m1098 243 l-3 -83 -472 -3 -473 -2 0 85
0 85 475 0 476 0 -3 -82z m-508 -258 l0 -50 -220 0 -220 0 0 50 0 50 220 0
220 0 0 -50z m505 0 l0 -45 -222 -3 -223 -2 0 50 0 50 223 -2 222 -3 0 -45z
m-505 -240 l0 -50 -220 0 -220 0 0 50 0 50 220 0 220 0 0 -50z m505 0 l0 -45
-222 -3 -223 -2 0 43 c0 24 3 47 7 51 4 3 104 5 222 4 l216 -3 0 -45z"/>
</g>
</svg>
