<svg xmlns="http://www.w3.org/2000/svg" width="29.985" height="34.268" viewBox="0 0 29.985 34.268">
  <path id="Icon_awesome-apple-alt" data-name="Icon awesome-apple-alt" d="M23.482,8.634a6.557,6.557,0,0,1,4.278,2.811,12.544,12.544,0,0,1,2.005,5.22,16.646,16.646,0,0,1-.067,5.756,18.086,18.086,0,0,1-3.209,7.965,8.67,8.67,0,0,1-7.22,3.882,5.076,5.076,0,0,1-2.34-.669,3.778,3.778,0,0,0-3.878,0,5.076,5.076,0,0,1-2.34.669,8.67,8.67,0,0,1-7.22-3.882A18.086,18.086,0,0,1,.284,22.421a16.646,16.646,0,0,1-.067-5.756,12.544,12.544,0,0,1,2.005-5.22A6.557,6.557,0,0,1,6.5,8.634a11.167,11.167,0,0,1,4.412.469,18.533,18.533,0,0,1,4.078,1.606A18.533,18.533,0,0,1,19.069,9.1a11.175,11.175,0,0,1,4.413-.469ZM19.805,5.89a5.659,5.659,0,0,1-2.474,1.272,7.81,7.81,0,0,1-2.34.335l-1-.067a8.589,8.589,0,0,1,0-2.142,5.971,5.971,0,0,1,1.537-3.681A5.659,5.659,0,0,1,18,.335,7.81,7.81,0,0,1,20.34,0l1,.067.067,1a7.85,7.85,0,0,1-.334,2.343,5.658,5.658,0,0,1-1.27,2.476Z" transform="translate(0.001)" fill="#481a91"/>
</svg>
