<svg xmlns="http://www.w3.org/2000/svg" width="31.998" height="32" viewBox="0 0 31.998 32">
  <path id="Icon_ionic-ios-person" data-name="Icon ionic-ios-person" d="M36.483,35.692c-.6-2.65-4.025-3.942-5.208-4.358a38.831,38.831,0,0,0-4.342-.833,4.411,4.411,0,0,1-2.008-.925c-.333-.4-.133-4.108-.133-4.108a12.36,12.36,0,0,0,.95-1.808,23.325,23.325,0,0,0,.7-3.158s.683,0,.925-1.2c.258-1.308.667-1.817.617-2.792-.05-.958-.575-.933-.575-.933a14.611,14.611,0,0,0,.567-4.275c.075-3.425-2.608-6.8-7.467-6.8-4.925,0-7.55,3.375-7.475,6.8a15.24,15.24,0,0,0,.558,4.275s-.525-.025-.575.933c-.05.975.358,1.483.617,2.792.233,1.2.925,1.2.925,1.2a23.325,23.325,0,0,0,.7,3.158,12.36,12.36,0,0,0,.95,1.808s.2,3.708-.133,4.108a4.411,4.411,0,0,1-2.008.925,38.831,38.831,0,0,0-4.342.833c-1.183.417-4.608,1.708-5.208,4.358a.666.666,0,0,0,.658.808H35.833A.665.665,0,0,0,36.483,35.692Z" transform="translate(-4.501 -4.5)" fill="#351e59"/>
</svg>
