<svg id="Group_16138" data-name="Group 16138" xmlns="http://www.w3.org/2000/svg" width="42.062" height="38.983" viewBox="0 0 42.062 38.983">
  <path id="Path_9648" data-name="Path 9648" d="M-3324.371,1939.072h-.443q-7.779,0-15.558,0c-.6,0-1.209-.026-1.814-.041a.553.553,0,0,1-.1-.016,2.429,2.429,0,0,1-1.778-3.71,3.8,3.8,0,0,1,1.3-1.489c0,.5,0,.922,0,1.346a8.215,8.215,0,0,0,.032.979,1.654,1.654,0,0,0,1.673,1.439,1.623,1.623,0,0,0,1.639-1.431c.065-.672.034-1.353.041-2.029,0-.454,0-.908,0-1.432.767-.084,1.514-.2,2.265-.242a18.485,18.485,0,0,1,5.008.448,3.315,3.315,0,0,1,2.541,1.886c.039.089.243.148.371.149q3.364.013,6.728,0a2.117,2.117,0,0,1,1.51.538,1.948,1.948,0,0,1,.669,1.418q.145,5.534.276,11.069a2.052,2.052,0,0,1-1.511,2.071,2.065,2.065,0,0,1-2.621-1.962q-.108-4.326-.212-8.652C-3324.357,1939.32-3324.364,1939.228-3324.371,1939.072Z" transform="translate(3362.072 -1911.122)" fill="#481a91"/>
  <path id="Path_9649" data-name="Path 9649" d="M-3522.861,1792.412c-.285-.363-.594-.709-.849-1.091a1.705,1.705,0,0,0-2.394-.614,1.692,1.692,0,0,0-.46,2.427,9.751,9.751,0,0,0,2.811,2.846.407.407,0,0,1,.209.479,17.309,17.309,0,0,0-.245,4.811,2.6,2.6,0,0,0,.123.506,25.615,25.615,0,0,1-.116,17.1,2.056,2.056,0,0,1-2.87,1.219,2.056,2.056,0,0,1-1.032-2.578,21.238,21.238,0,0,0,1.058-4.163,21.836,21.836,0,0,0-.664-9.288.4.4,0,0,0-.2-.243,3.211,3.211,0,0,1-2.21-2.917,18.184,18.184,0,0,1,1.08-9.319,3.9,3.9,0,0,1,2.583-2.478,2.35,2.35,0,0,1,3.227,2.027c.066.4.061.819.089,1.229Z" transform="translate(3529.889 -1781.326)" fill="#481a91"/>
  <path id="Path_9650" data-name="Path 9650" d="M-3364.392,1768.232a5.23,5.23,0,0,1,5.267-5.234,5.233,5.233,0,0,1,5.226,5.275,5.237,5.237,0,0,1-5.25,5.218A5.234,5.234,0,0,1-3364.392,1768.232Zm7.32.029a2.064,2.064,0,0,0-2.039-2.092,2.061,2.061,0,0,0-2.108,2.057,2.06,2.06,0,0,0,2.073,2.092A2.062,2.062,0,0,0-3357.073,1768.262Z" transform="translate(3380.147 -1757.832)" fill="#481a91"/>
  <path id="Path_9651" data-name="Path 9651" d="M-3403.919,2018.867h-26.852v-2.114h26.852Z" transform="translate(3440.207 -1987.429)" fill="#481a91"/>
  <path id="Path_9652" data-name="Path 9652" d="M-3422.943,1931.073a3.708,3.708,0,0,1-3.764,3.7,3.729,3.729,0,0,1-3.679-3.76,3.718,3.718,0,0,1,3.755-3.68A3.7,3.7,0,0,1-3422.943,1931.073Z" transform="translate(3439.858 -1906.524)" fill="#481a91"/>
  <path id="Path_9653" data-name="Path 9653" d="M-3476.6,1712.448a3.71,3.71,0,0,1-3.752,3.714,3.728,3.728,0,0,1-3.7-3.74,3.732,3.732,0,0,1,3.742-3.7A3.716,3.716,0,0,1-3476.6,1712.448Z" transform="translate(3488.41 -1708.723)" fill="#481a91"/>
  <path id="Path_9654" data-name="Path 9654" d="M-3484.7,1815.227a12.123,12.123,0,0,1-7.55-2.614,8.569,8.569,0,0,1-2.035-2.294,1.313,1.313,0,0,1,.917-2.013,1.2,1.2,0,0,1,1.256.522c1.828,2.715,4.489,3.7,7.625,3.66a20.45,20.45,0,0,0,2.261-.223.447.447,0,0,1,.487.2,10.43,10.43,0,0,0,1.092,1.222.347.347,0,0,1,.073.53,1.321,1.321,0,0,1-.97.624C-3482.591,1814.979-3483.645,1815.1-3484.7,1815.227Z" transform="translate(3497.856 -1798.807)" fill="#481a91"/>
  <path id="Path_9655" data-name="Path 9655" d="M-3323.133,1879.164h2.608c0,.06.016.162.016.264q0,4.083,0,8.166a1.309,1.309,0,0,1-1.436,1.43,1.3,1.3,0,0,1-1.188-1.14,2.946,2.946,0,0,1-.013-.315q0-4.065,0-8.131C-3323.146,1879.335-3323.136,1879.232-3323.133,1879.164Z" transform="translate(3342.829 -1862.938)" fill="#481a91"/>
</svg>
