<svg id="Group_16142" data-name="Group 16142" xmlns="http://www.w3.org/2000/svg" width="44.244" height="23.721" viewBox="0 0 44.244 23.721">
  <path id="Path_9656" data-name="Path 9656" d="M-2496.7,1787.584l7.991-9.621c-.213,0-.343,0-.472,0q-2.752.106-5.5.215c-.714.027-1.163-.559-.866-1.135a.808.808,0,0,1,.758-.436c1.876-.072,3.753-.154,5.629-.232.714-.03,1.428-.067,2.143-.082a.774.774,0,0,1,.879.839q.162,3.78.319,7.561c0,.1.01.2.006.294a.79.79,0,0,1-.748.808.779.779,0,0,1-.831-.767c-.046-.769-.066-1.54-.095-2.31-.039-.994-.074-1.989-.113-2.983-.006-.152-.025-.3-.049-.573l-7.842,9.429Z" transform="translate(2530.057 -1776.294)" fill="#481a91"/>
  <path id="Path_9657" data-name="Path 9657" d="M-2712.392,1836.905a3.617,3.617,0,0,1-3.6,3.621,3.638,3.638,0,0,1-3.615-3.614,3.639,3.639,0,0,1,3.628-3.6A3.619,3.619,0,0,1-2712.392,1836.905Z" transform="translate(2734.184 -1828.508)" fill="#481a91"/>
  <path id="Path_9658" data-name="Path 9658" d="M-2889.08,1979.43a3.62,3.62,0,0,1-3.6-3.622,3.627,3.627,0,0,1,3.589-3.594,3.638,3.638,0,0,1,3.624,3.606A3.628,3.628,0,0,1-2889.08,1979.43Z" transform="translate(2892.677 -1955.709)" fill="#481a91"/>
  <path id="Path_9659" data-name="Path 9659" d="M-2564.417,1923.91a3.6,3.6,0,0,1-3.6,3.609,3.614,3.614,0,0,1-3.6-3.62,3.626,3.626,0,0,1,3.588-3.593A3.616,3.616,0,0,1-2564.417,1923.91Z" transform="translate(2598.665 -1908.173)" fill="#481a91"/>
  <path id="Path_9660" data-name="Path 9660" d="M-2808.23,1912.31l-1.016-1.205,6.58-5.272.962,1.245Z" transform="translate(2816.275 -1894.919)" fill="#481a91"/>
  <path id="Path_9661" data-name="Path 9661" d="M-2624.034,1900.8l-3.388-2.425.757-1.393,3.393,2.427Z" transform="translate(2649.768 -1886.814)" fill="#481a91"/>
</svg>
