<svg xmlns="http://www.w3.org/2000/svg" width="56.098" height="58.81" viewBox="0 0 56.098 58.81">
  <g id="Group_16151" data-name="Group 16151" transform="translate(0)">
    <path id="Path_11565" data-name="Path 11565" d="M217.256,257.89a7.874,7.874,0,0,0,1.747.266,27.778,27.778,0,0,1,23.258,20.967A28.071,28.071,0,0,1,220.544,313.4c-.3.062-.413.055-.393-.288.027-.472-.146-1.035.057-1.4.214-.38.852-.277,1.3-.405,10.12-2.9,16.664-9.409,19.1-19.639A26.167,26.167,0,1,0,208.335,311.2c.44.117.885.224,1.333.308.291.055.4.184.381.489a8.34,8.34,0,0,0,0,1.126c.018.307-.079.336-.365.278a28.085,28.085,0,0,1-22.394-23.99A28.031,28.031,0,0,1,212.6,257.989c.087-.008.2.037.241-.1h.392c.08.079.182.04.274.051.075,0,.156.015.216-.051h2.744c.061.066.141.046.216.051.092-.01.194.029.274-.051Z" transform="translate(-187.061 -257.89)" fill="#351e59"/>
    <path id="Path_11566" data-name="Path 11566" d="M270.5,278.95c.68-.088,1.306-.179,1.935-.248a6.149,6.149,0,0,1,2.705.278,4.925,4.925,0,0,1,3.379,4.436,16.975,16.975,0,0,1-.82,6.557,13.081,13.081,0,0,1-1.322,3.4,5.1,5.1,0,0,1-6.678,2.293.729.729,0,0,0-.6,0,5.083,5.083,0,0,1-6.677-2.285,16.938,16.938,0,0,1-1.735-5.058,14.458,14.458,0,0,1-.421-4.706,5.154,5.154,0,0,1,6.045-4.923,11.073,11.073,0,0,1,2.025.322c.248.072.3-.015.33-.24.249-2.149,1.937-3.608,4.388-3.867a.91.91,0,1,1,.249,1.8,4.826,4.826,0,0,0-1.581.479A2.31,2.31,0,0,0,270.5,278.95Z" transform="translate(-241.369 -270.517)" fill="#351e59"/>
    <path id="Path_11567" data-name="Path 11567" d="M321.21,304.82a18.551,18.551,0,0,1,3.123,2.635,19.321,19.321,0,0,1-8.428,31.783c-.443.132-.528.034-.494-.385.035-.438-.118-.948.059-1.3s.765-.338,1.163-.5c6.177-2.589,9.971-7.15,10.957-13.781.936-6.3-1.2-11.58-5.946-15.806a.711.711,0,0,1-.282-.619A10.378,10.378,0,0,0,321.21,304.82Z" transform="translate(-282.321 -292.729)" fill="#351e59"/>
    <path id="Path_11568" data-name="Path 11568" d="M229.423,304.981a10.854,10.854,0,0,0-.146,2.164c.008.227-.152.306-.283.419a17.435,17.435,0,0,0,5.781,29.865.536.536,0,0,1,.452.648c-.031.452-.007.907-.007,1.372a19.219,19.219,0,0,1-5.8-34.468Z" transform="translate(-212.239 -292.848)" fill="#351e59"/>
    <path id="Path_11569" data-name="Path 11569" d="M270.66,389.45c0-2.515-.005-5.03.007-7.545,0-.315-.075-.427-.4-.506a5.2,5.2,0,0,1-4-5c-.03-2.6-.011-5.193-.006-7.79a.959.959,0,0,1,.947-1.074.947.947,0,0,1,.9,1.069q0,3.772,0,7.545a3.378,3.378,0,0,0,3.32,3.562c.8.056,1.086.353,1.086,1.13q0,8.059,0,16.118a1,1,0,0,1-.6,1.067.925.925,0,0,1-1.248-.983c-.007-1.927,0-3.854,0-5.781Z" transform="translate(-245.845 -339.286)" fill="#351e59"/>
    <path id="Path_11570" data-name="Path 11570" d="M301.22,388.916q0-4.017,0-8.034c0-.822.272-1.11,1.1-1.17a3.378,3.378,0,0,0,3.31-3.571c0-2.515,0-5.029,0-7.544,0-.781.584-1.239,1.239-.987a.851.851,0,0,1,.595.82c-.014,2.84.15,5.686-.068,8.519a4.991,4.991,0,0,1-3.9,4.44c-.39.094-.435.253-.434.583q.011,7.4.005,14.794c0,.131.006.262,0,.392a.931.931,0,0,1-.931.938.919.919,0,0,1-.913-1c-.006-2.466,0-4.931,0-7.4Q301.22,389.308,301.22,388.916Z" transform="translate(-271.807 -339.29)" fill="#351e59"/>
    <path id="Path_11571" data-name="Path 11571" d="M283.374,372.269c0-1.206,0-2.413,0-3.619,0-.669.356-1.1.9-1.115.566-.015.942.427.943,1.121q0,3.595,0,7.19c0,.688-.335,1.091-.9,1.1-.588.011-.944-.4-.945-1.109C283.372,374.649,283.374,373.459,283.374,372.269Z" transform="translate(-258.559 -339.285)" fill="#351e59"/>
    <path id="Path_11572" data-name="Path 11572" d="M301.222,372.217c0-1.19,0-2.38,0-3.57,0-.673.35-1.1.9-1.111s.944.434.944,1.125q0,3.595,0,7.19c0,.686-.341,1.09-.908,1.1-.587.01-.937-.4-.939-1.112Q301.22,374.027,301.222,372.217Z" transform="translate(-271.809 -339.286)" fill="#351e59"/>
  </g>
</svg>
