<svg xmlns="http://www.w3.org/2000/svg" width="25.044" height="33.391" viewBox="0 0 25.044 33.391">
  <path id="Icon_awesome-hourglass-half" data-name="Icon awesome-hourglass-half" d="M23.478,0H1.565A1.565,1.565,0,0,0,0,1.565V2.609A1.565,1.565,0,0,0,1.565,4.174c0,5.933,3.327,10.939,7.881,12.522-4.554,1.583-7.881,6.589-7.881,12.522A1.565,1.565,0,0,0,0,30.783v1.043a1.565,1.565,0,0,0,1.565,1.565H23.478a1.565,1.565,0,0,0,1.565-1.565V30.783a1.565,1.565,0,0,0-1.565-1.565c0-5.933-3.327-10.939-7.881-12.522,4.554-1.583,7.881-6.589,7.881-12.522a1.565,1.565,0,0,0,1.565-1.565V1.565A1.565,1.565,0,0,0,23.478,0Zm-4.9,25.044H6.462c1.113-3.052,3.4-5.217,6.06-5.217S17.469,21.991,18.582,25.044Zm0-16.7H6.462a12.236,12.236,0,0,1-.722-4.174H19.3a12.237,12.237,0,0,1-.721,4.174Z" fill="#351e59"/>
</svg>
