<svg xmlns="http://www.w3.org/2000/svg" width="30.646" height="47.66" viewBox="0 0 30.646 47.66">
  <g id="Group_16152" data-name="Group 16152" transform="translate(0)">
    <path id="Path_11573" data-name="Path 11573" d="M151.263,275.181c-4.946,0-9.892-.005-14.838.01-.393,0-.484-.091-.483-.484q.033-12.4.029-24.809a4.175,4.175,0,0,1,1.821-3.584,20.729,20.729,0,0,1,2.524-1.467,8.174,8.174,0,0,0,1.737-1.124,2.049,2.049,0,0,0,.71-1.629c-.02-.96.005-1.922-.012-2.882,0-.271.078-.335.34-.335q8.175.011,16.35,0c.269,0,.34.074.336.339-.016.961.009,1.922-.011,2.882a2.042,2.042,0,0,0,.712,1.627,8.217,8.217,0,0,0,1.738,1.123,22.079,22.079,0,0,1,2.448,1.411,4.237,4.237,0,0,1,1.9,3.689q-.018,12.381.028,24.762c0,.4-.1.48-.487.479Q158.682,275.169,151.263,275.181Z" transform="translate(-135.942 -227.531)" fill="#351e59"/>
    <path id="Path_11574" data-name="Path 11574" d="M183.9,118.886c3.812,0,7.624.005,11.437-.009.353,0,.437.082.435.435q-.025,4.111,0,8.223c0,.354-.084.435-.436.434q-11.484-.017-22.968,0c-.353,0-.437-.082-.435-.435q.025-4.111,0-8.223c0-.355.084-.436.436-.434C176.216,118.891,180.06,118.886,183.9,118.886Z" transform="translate(-168.534 -118.877)" fill="#351e59"/>
    <path id="Path_11575" data-name="Path 11575" d="M250.734,335.139c-1.9,0-3.729-.006-5.553,0a1.176,1.176,0,0,1-1.168-.639,1.156,1.156,0,0,1,.172-1.278q3.625-5.006,7.242-10.018a1.14,1.14,0,0,1,2.111.75,1.642,1.642,0,0,1-.361.705l-5.663,7.841c-.071.1-.138.2-.254.366h.512c1.685,0,3.37.007,5.054,0a1.176,1.176,0,0,1,1.141.605,1.155,1.155,0,0,1-.161,1.32q-3.6,4.969-7.185,9.943a1.148,1.148,0,1,1-1.836-1.342q2.814-3.9,5.631-7.806C250.508,335.461,250.6,335.335,250.734,335.139Z" transform="translate(-233.684 -303.369)" fill="#fefefe"/>
  </g>
</svg>
