<svg xmlns="http://www.w3.org/2000/svg" width="40.839" height="40.535" viewBox="0 0 40.839 40.535">
  <g id="Group_16139" data-name="Group 16139" transform="translate(1721.214 -109.257)">
    <path id="Path_9760" data-name="Path 9760" d="M-1661.332,159.747a3.085,3.085,0,0,0-.108-1.124c-.068-.246.006-.312.233-.331a5.121,5.121,0,0,0,.566-.113,7.792,7.792,0,0,0-.619,1.67Z" transform="translate(-26.011 -21.298)" fill="#481a91"/>
    <path id="Path_9761" data-name="Path 9761" d="M-1684.742,142.86a18.145,18.145,0,0,1,.008-2.5,12.692,12.692,0,0,0-.291-4.077.441.441,0,0,1,.026-.307,13.589,13.589,0,0,0,.924-4.949c0-.216.008-.364.293-.333a.259.259,0,0,0,.3-.284.265.265,0,0,0-.3-.278h-3.966a.267.267,0,0,0-.292.252.255.255,0,0,0,.268.308c.284-.023.269.144.276.33.061,1.68-.055,3.357-.066,5.037a19.522,19.522,0,0,0,.582,5.518,2.888,2.888,0,0,1-.008,1.4c-.065.326-.144.651-.191.98a.241.241,0,0,1-.2.239c-.442.122-.44.126-.543-.318a1.041,1.041,0,0,0-1.427-.914c-.186.038-.373.072-.56.108a.856.856,0,0,0-.785.942,12.573,12.573,0,0,0,.524,2.832.873.873,0,0,0,1.128.608c.222-.042.445-.075.667-.121a.975.975,0,0,0,.874-1.17c-.009-.113-.117-.29.112-.294.172,0,.385-.242.52.066a.181.181,0,0,0,.059.088c.477.254.3.617.183.987a14.175,14.175,0,0,1-2.785,5.289,9.843,9.843,0,0,1-2.55,2.046,2.266,2.266,0,0,1-3.24-.623,13.969,13.969,0,0,1-1.931-3.356c-.634-1.433-1.161-2.91-1.841-4.322a12.346,12.346,0,0,0-1.08-1.883,3.18,3.18,0,0,0-2.573-1.381,11.193,11.193,0,0,1-1.743-.139c-.216-.043-.468-.054-.531-.338a.725.725,0,0,1,.239-.773,2.887,2.887,0,0,1,1.016-.5q2.158-.673,4.324-1.325c.647-.195,1,.023,1.134.688a7.981,7.981,0,0,1,.109,1.778c0,.192,0,.435-.228.524-.207.08-.356-.089-.5-.2-.18-.137-.348-.29-.526-.429a1.1,1.1,0,0,0-.513-.236.275.275,0,0,0-.316.174.233.233,0,0,0,.117.333c.427.139.666.568,1.054.712.528.2.719.616.959,1.045a15.684,15.684,0,0,0,2.228,2.825c.434.475.859.957,1.246,1.471a5.81,5.81,0,0,1,1.267,3.67c0,.19.015.374.259.39a.272.272,0,0,0,.3-.346c-.22-1.348.453-2.524.72-3.777a14.519,14.519,0,0,0,.47-3.167,3.047,3.047,0,0,0-.2-1.08,3.994,3.994,0,0,1,.724-4.327c.3-.351.61-.7.936-1.031a4.985,4.985,0,0,0,1.455-3.5,22.323,22.323,0,0,0-.179-3.313,9.379,9.379,0,0,1,.395-4.851c.265-.636.648-1.216.887-1.913a6.028,6.028,0,0,0,1.18,1.1,6.571,6.571,0,0,0,1.76.924c.108.035.212.053.269.2a3.983,3.983,0,0,0,1.016,1.363c.266.256.537.507.793.773a2.306,2.306,0,0,1,.485,2.959,7.055,7.055,0,0,0-.674,1.829c-.276,1.617-.556,3.234-.854,4.846A13.445,13.445,0,0,1-1684.742,142.86Z" transform="translate(-7.087 -6.917)" fill="#481a91"/>
    <path id="Path_9762" data-name="Path 9762" d="M-1721.175,164.837c.012-1.786-.1-3.573.01-5.358a2.916,2.916,0,0,1,.029-.32c.168-.992.514-1.3,1.52-1.344.2-.009.4-.005.607,0q4.342.042,8.682,0a6.09,6.09,0,0,1,.643.014c.93.088,1.277.433,1.389,1.359a10.383,10.383,0,0,1,.072,1.283q-.02,4.752-.038,9.5a3.976,3.976,0,0,1-.03.5.448.448,0,0,1-.418.417,4.752,4.752,0,0,1-1.211.007.474.474,0,0,1-.464-.455,4.184,4.184,0,0,1-.031-.462q-.02-4.323-.036-8.647a2.606,2.606,0,0,0-.04-.5.841.841,0,0,0-.9-.749q-3.323-.008-6.646,0a.856.856,0,0,0-.923.88c-.032.678-.035,1.357-.038,2.036q-.016,3.538-.024,7.075c0,.688-.143.83-.839.848a6.037,6.037,0,0,1-.678-.013c-.488-.041-.625-.186-.63-.676-.009-.905-.009-1.81-.011-2.715S-1721.175,165.731-1721.175,164.837Z" transform="translate(0 -21.137)" fill="#481a91"/>
    <path id="Path_9763" data-name="Path 9763" d="M-1668.391,154.03a16.149,16.149,0,0,0,1.316-4.159c.024-.127.064-.19.2-.181a17.005,17.005,0,0,1,5.232.8,5.108,5.108,0,0,1,.977.51,2.186,2.186,0,0,1,1.051,2.574c-.349,1.58-.943,3.087-1.42,4.629a16.075,16.075,0,0,0-.764,3.473,3.505,3.505,0,0,0,1.655,3.3,8.021,8.021,0,0,0,1.882.923c.156.058.314.111.466.178.193.086.425.155.415.427a.707.707,0,0,1-.4.666,1.669,1.669,0,0,1-.689.167c-1.7.022-3.406,0-5.108-.055-.591-.019-.83-.313-.786-.907a6.4,6.4,0,0,1,.508-1.922c.176-.433.412-.439.689-.05.137.193.252.4.386.6a1.245,1.245,0,0,0,.462.438.256.256,0,0,0,.346-.088.239.239,0,0,0-.023-.353,3.5,3.5,0,0,1-.707-.932,1.053,1.053,0,0,0-.737-.512c-.185-.019-.2-.09-.2-.244a42.6,42.6,0,0,0-.186-4.387,9.886,9.886,0,0,1,.236-3.084,4.3,4.3,0,0,1,1.133-1.989c.155-.154.3-.319.1-.513s-.379-.04-.51.12c-.429.522-1.07.451-1.632.6-.143.037-.132-.09-.152-.181a5.174,5.174,0,0,0-.214-.9.921.921,0,0,0-1.142-.6c-.233.046-.469.079-.7.129a.9.9,0,0,0-.825,1.022c.023.31-.094.365-.339.39A5.018,5.018,0,0,0-1668.391,154.03Z" transform="translate(-22.996 -17.602)" fill="#481a91"/>
    <path id="Path_9764" data-name="Path 9764" d="M-1670.136,111.948a5.888,5.888,0,0,1-.2.559,1.849,1.849,0,0,0-.023,1.806c.186.338.177.6-.235.761-.227.09-.251.326-.285.54a4.01,4.01,0,0,1-.184.941c-.156.372-.335.434-.656.207s-.605-.46-.908-.691a.675.675,0,0,1-.234-.935.514.514,0,0,0,.045-.1.278.278,0,0,0-.155-.357.256.256,0,0,0-.359.131,1.586,1.586,0,0,0-.2.713.541.541,0,0,1-.73.552,4.149,4.149,0,0,1-2.566-2.507,2.811,2.811,0,0,1,.82-2.9,3.956,3.956,0,0,1,3.438-1.384,2.844,2.844,0,0,1,2.281,1.779c.078.16.011.238-.093.33a2.567,2.567,0,0,1-.837.464c-.322.119-.648.23-.973.342a3.363,3.363,0,0,0-2.229,2.848.282.282,0,0,0,.236.372c.178.031.287-.08.321-.258.013-.07.037-.138.051-.208a2.85,2.85,0,0,1,2.037-2.3A6.337,6.337,0,0,0-1670.136,111.948Z" transform="translate(-19.264)" fill="#481a91"/>
    <path id="Path_9765" data-name="Path 9765" d="M-1671.946,134.994c.3,0,.6.009.893,0,.182-.008.247.042.242.237a13.086,13.086,0,0,1-.894,4.808,1.018,1.018,0,0,0-.037.719,12.012,12.012,0,0,1,.274,3.721c-.029.7-.047,1.4-.076,2.105a3.068,3.068,0,0,0,.379,1.61,4.353,4.353,0,0,1,.408.945.679.679,0,0,1-.3.8,1.458,1.458,0,0,1-1.194.2.555.555,0,0,1-.392-.378,3.344,3.344,0,0,1-.058-1.966c.05-.244.105-.487.152-.732a2.538,2.538,0,0,0-.033-1.229,16.135,16.135,0,0,1-.576-4.05c-.064-2.024.091-4.046.062-6.07-.01-.719-.011-.719.722-.719Z" transform="translate(-20.914 -11.203)" fill="#481a91"/>
    <path id="Path_9766" data-name="Path 9766" d="M-1677.659,157.636c.329-.036.452.1.5.278a23.226,23.226,0,0,1,.486,2.547.377.377,0,0,1-.354.449,6.045,6.045,0,0,0-.7.131.388.388,0,0,1-.542-.305,22.22,22.22,0,0,1-.466-2.478.387.387,0,0,1,.38-.49C-1678.084,157.736-1677.819,157.668-1677.659,157.636Z" transform="translate(-18.49 -21.059)" fill="#481a91"/>
    <path id="Path_9767" data-name="Path 9767" d="M-1663.786,158.226c-.024.27-.122.435-.409.466a4.768,4.768,0,0,0-.627.125.445.445,0,0,1-.617-.4c-.152-.779-.306-1.558-.439-2.34a.421.421,0,0,1,.411-.543,4.074,4.074,0,0,0,.629-.117.386.386,0,0,1,.546.3C-1664.109,156.551-1663.953,157.389-1663.786,158.226Z" transform="translate(-24.085 -20.086)" fill="#481a91"/>
    <path id="Path_9768" data-name="Path 9768" d="M-1671.036,125.065a6.424,6.424,0,0,1-2.362-1.692.58.58,0,0,1-.123-.762,1.5,1.5,0,0,0,.155-.4c.053-.195.138-.223.333-.154a1.136,1.136,0,0,0,1.08-.172c.072-.051.163-.215.253-.095.141.186.5.232.434.539A4.763,4.763,0,0,0-1671.036,125.065Z" transform="translate(-20.721 -5.439)" fill="#481a91"/>
    <path id="Path_9769" data-name="Path 9769" d="M-1668.378,158.276c.229-.051.457-.1.687-.15.136-.028.294-.139.335.13.032.206.014.339-.227.352a.544.544,0,0,0-.173.032C-1668.094,158.777-1668.328,158.72-1668.378,158.276Z" transform="translate(-23.001 -21.255)" fill="#481a91"/>
    <path id="Path_9770" data-name="Path 9770" d="M-1673.907,160.18c.052.3-.184.223-.317.253-.277.062-.2-.181-.212-.3-.034-.269.209-.185.34-.217C-1673.822,159.849-1673.978,160.1-1673.907,160.18Z" transform="translate(-20.363 -22.05)" fill="#481a91"/>
    <path id="Path_9771" data-name="Path 9771" d="M-1669.4,111.819c-.034.053-.074.125-.124.19a2.082,2.082,0,0,1-.961.649c-.265.1-.535.195-.805.283a2.432,2.432,0,0,0-1.67,1.874c-.022.093-.046.185-.064.278-.025.129-.1.19-.229.156a.171.171,0,0,1-.121-.224,2.856,2.856,0,0,1,1.456-2.2,7.406,7.406,0,0,1,.89-.355,2.376,2.376,0,0,0,1.292-.767.163.163,0,0,1,.215-.073A.21.21,0,0,1-1669.4,111.819Z" transform="translate(-20.825 -1.025)" fill="#481a91"/>
  </g>
</svg>
